<svg width="224" height="48" viewBox="0 0 224 48" fill="none" xmlns="http://www.w3.org/2000/svg">
<path d="M112 12C105.373 12 100 17.3732 100 24C100 30.6268 105.373 36 112 36C118.627 36 124 30.6268 124 24C124 17.3732 118.627 12 112 12ZM117.183 20.0813L111.542 27.9027C111.463 28.0127 111.359 28.1024 111.239 28.1642C111.118 28.2261 110.985 28.2584 110.85 28.2584C110.714 28.2584 110.581 28.2261 110.46 28.1642C110.34 28.1024 110.236 28.0127 110.157 27.9027L106.817 23.2741C106.715 23.1321 106.817 22.9339 106.991 22.9339H108.247C108.521 22.9339 108.78 23.0652 108.941 23.2902L110.848 25.9366L115.059 20.0973C115.22 19.875 115.477 19.7411 115.753 19.7411H117.009C117.183 19.7411 117.285 19.9393 117.183 20.0813Z" fill="#1D2225"/>
</svg>
