<svg width="154" height="154" viewBox="0 0 154 154" fill="none" xmlns="http://www.w3.org/2000/svg">
<rect x="39" y="36" width="76" height="76" fill="white"/>
<g filter="url(#filter0_b_1_3578)">
<path d="M76.6667 0C34.3467 0 0 34.3467 0 76.6667C0 118.987 34.3467 153.333 76.6667 153.333C118.987 153.333 153.333 118.987 153.333 76.6667C153.333 34.3467 118.987 0 76.6667 0ZM97.06 89.93L87.2467 95.6033L77.4333 101.277C64.7833 108.56 54.4333 102.58 54.4333 88.0133V65.32C54.4333 50.6767 64.7833 44.7733 77.4333 52.0567L87.2467 57.73L97.06 63.4033C109.71 70.6867 109.71 82.6467 97.06 89.93Z" fill="#3A78F2"/>
</g>
<defs>
<filter id="filter0_b_1_3578" x="-4" y="-4" width="161.333" height="161.333" filterUnits="userSpaceOnUse" color-interpolation-filters="sRGB">
<feFlood flood-opacity="0" result="BackgroundImageFix"/>
<feGaussianBlur in="BackgroundImage" stdDeviation="2"/>
<feComposite in2="SourceAlpha" operator="in" result="effect1_backgroundBlur_1_3578"/>
<feBlend mode="normal" in="SourceGraphic" in2="effect1_backgroundBlur_1_3578" result="shape"/>
</filter>
</defs>
</svg>
