<svg width="224" height="48" viewBox="0 0 224 48" fill="none" xmlns="http://www.w3.org/2000/svg">
<path d="M117.009 19.741H115.753C115.479 19.741 115.22 19.8722 115.059 20.0972L110.848 25.9365L108.941 23.2901C108.78 23.0678 108.523 22.9338 108.247 22.9338H106.991C106.817 22.9338 106.715 23.132 106.817 23.274L110.154 27.9026C110.233 28.0126 110.337 28.1023 110.458 28.1641C110.578 28.226 110.711 28.2583 110.847 28.2583C110.982 28.2583 111.116 28.226 111.236 28.1641C111.356 28.1023 111.46 28.0126 111.539 27.9026L117.18 20.0811C117.285 19.9392 117.183 19.741 117.009 19.741Z" fill="#1D2225"/>
<path d="M112 12C105.373 12 100 17.3732 100 24C100 30.6268 105.373 36 112 36C118.627 36 124 30.6268 124 24C124 17.3732 118.627 12 112 12ZM112 33.9643C106.498 33.9643 102.036 29.5018 102.036 24C102.036 18.4982 106.498 14.0357 112 14.0357C117.502 14.0357 121.964 18.4982 121.964 24C121.964 29.5018 117.502 33.9643 112 33.9643Z" fill="#1D2225"/>
</svg>
