<svg width="0" height="0" class="hidden">
  <symbol xmlns="http://www.w3.org/2000/svg" viewBox="0 0 35 34" id="circle">
    <path d="M29.725 21.8408C30.8064 19.2713 31.0554 16.4274 30.4368 13.7091C29.8182 10.9908 28.3633 8.53474 26.2765 6.68617C24.1898 4.8376 21.5761 3.68953 18.8031 3.40335C16.03 3.11718 13.237 3.7073 10.8167 5.09075L9.16333 2.19575C11.6927 0.75011 14.557 -0.00697036 17.4703 4.83608e-05C20.3837 0.00706708 23.2443 0.777939 25.7667 2.23575C33.25 6.55575 36.1167 15.8058 32.6283 23.5191L34.865 24.8091L27.9233 28.4991L27.6483 20.6424L29.725 21.8408ZM5.14167 11.4974C4.06024 14.0669 3.81131 16.9107 4.42986 19.629C5.04842 22.3473 6.50336 24.8034 8.59012 26.652C10.6769 28.5006 13.2905 29.6486 16.0636 29.9348C18.8367 30.221 21.6297 29.6309 24.05 28.2474L25.7033 31.1424C23.1739 32.5881 20.3097 33.3451 17.3963 33.3381C14.483 33.3311 11.6224 32.5602 9.1 31.1024C1.61667 26.7824 -1.25 17.5324 2.23833 9.81909L0 8.53075L6.94167 4.84075L7.21667 12.6974L5.14 11.4991L5.14167 11.4974ZM19.7917 21.3824L15.0733 16.6691L10.36 21.3824L8.00333 19.0258L15.075 11.9558L19.79 16.6691L24.505 11.9558L26.8617 14.3124L19.79 21.3824H19.7917Z"></path>
  </symbol>
  <symbol xmlns="http://www.w3.org/2000/svg" viewBox="0 0 40 40" id="graphic">
    <g clip-path="url(#clip0_1_3500)">
      <path fill-rule="evenodd" clip-rule="evenodd" d="M3.75003 4.375C3.75003 3.87772 3.55249 3.40081 3.20086 3.04917C2.84923 2.69754 2.37231 2.5 1.87503 2.5C1.37775 2.5 0.900836 2.69754 0.549205 3.04917C0.197575 3.40081 3.05176e-05 3.87772 3.05176e-05 4.375L3.05176e-05 35.625C3.05176e-05 36.66 0.840031 37.5 1.87503 37.5H38.125C38.6223 37.5 39.0992 37.3025 39.4509 36.9508C39.8025 36.5992 40 36.1223 40 35.625C40 35.1277 39.8025 34.6508 39.4509 34.2992C39.0992 33.9475 38.6223 33.75 38.125 33.75H3.75003V4.375ZM39.45 10.7C39.7812 10.3446 39.9615 9.87445 39.953 9.38869C39.9444 8.90294 39.7476 8.43948 39.4041 8.09595C39.0606 7.75241 38.5971 7.55563 38.1113 7.54706C37.6256 7.53849 37.1555 7.7188 36.8 8.05L25 19.85L18.825 13.675C18.4735 13.3239 17.9969 13.1266 17.5 13.1266C17.0032 13.1266 16.5266 13.3239 16.175 13.675L8.05003 21.8C7.71883 22.1554 7.53852 22.6256 7.54709 23.1113C7.55566 23.5971 7.75244 24.0605 8.09598 24.4041C8.43951 24.7476 8.90297 24.9444 9.38872 24.9529C9.87448 24.9615 10.3446 24.7812 10.7 24.45L17.5 17.65L23.675 23.825C24.0266 24.1761 24.5032 24.3734 25 24.3734C25.4969 24.3734 25.9735 24.1761 26.325 23.825L39.45 10.7Z"></path>
    </g>
    <defs>
      <clipPath id="clip0_1_3500">
        <rect width="40" height="40"></rect>
      </clipPath>
    </defs>
    <symbol xmlns="http://www.w3.org/2000/svg" viewBox="0 0 44 41" id="heart">
        <path d="M41.9998 29.2001C41.9998 31.0001 41.4998 32.7 40.5998 34.14C38.9398 36.92 35.8998 38.8 32.3998 38.8C28.8998 38.8 25.8398 36.92 24.1998 34.14C23.3198 32.7 22.7998 31.0001 22.7998 29.2001C22.7998 23.9001 27.0998 19.6001 32.3998 19.6001C37.6998 19.6001 41.9998 23.9001 41.9998 29.2001Z" stroke-width="3" stroke-miterlimit="10" stroke-linecap="round" stroke-linejoin="round"></path>
        <path d="M28.6599 29.2001L31.0199 31.5601L36.1399 26.8401" stroke-width="3" stroke-linecap="round" stroke-linejoin="round"></path>
        <path d="M42 13.1801C42 17.1201 40.98 20.6 39.38 23.62C37.62 21.76 35.14 20.6001 32.4 20.6001C27.1 20.6001 22.8 24.9001 22.8 30.2001C22.8 32.6601 23.74 34.9001 25.26 36.6001C24.52 36.9401 23.84 37.22 23.24 37.42C22.56 37.66 21.44 37.66 20.76 37.42C14.96 35.44 2 27.1801 2 13.1801C2 7.00005 6.98 2 13.12 2C16.74 2 19.98 3.76008 22 6.46008C24.02 3.76008 27.26 2 30.88 2C37.02 2 42 7.00005 42 13.1801Z" stroke-width="3" stroke-linecap="round" stroke-linejoin="round"></path>
    </symbol>
    <symbol xmlns="http://www.w3.org/2000/svg" viewBox="0 0 37 37" id="monitor">
        <path d="M8.50015 27H28.8168C31.9835 27 33.6501 25.3333 33.6501 22.1667V2H3.65015V22.1667C3.66681 25.3333 5.33349 27 8.50015 27Z" stroke-width="3" stroke-miterlimit="10" stroke-linecap="round" stroke-linejoin="round"></path>
        <path d="M2 2H35.3333" stroke-width="3" stroke-miterlimit="10" stroke-linecap="round" stroke-linejoin="round"></path>
        <path d="M12 35.3333L18.6667 32V27" stroke-width="3" stroke-miterlimit="10" stroke-linecap="round" stroke-linejoin="round"></path>
        <path d="M25.3334 35.3333L18.6667 32" stroke-width="3" stroke-miterlimit="10" stroke-linecap="round" stroke-linejoin="round"></path>
        <path d="M11.1667 17L16.4167 12.6167C16.8334 12.2667 17.3834 12.3667 17.6667 12.8333L19.6668 16.1667C19.9501 16.6333 20.5001 16.7167 20.9168 16.3833L26.1667 12" stroke-width="3" stroke-miterlimit="10" stroke-linecap="round" stroke-linejoin="round"></path>
    </symbol>
    <symbol xmlns="http://www.w3.org/2000/svg" viewBox="0 0 41 41" id="pencil">
        <path d="M39.7898 10.0359C39.9951 9.83105 40.1579 9.58773 40.269 9.31987C40.3801 9.052 40.4373 8.76486 40.4373 8.47486C40.4373 8.18487 40.3801 7.89772 40.269 7.62986C40.1579 7.36199 39.9951 7.11867 39.7898 6.91383L33.5235 0.64754C33.3187 0.442272 33.0754 0.279421 32.8075 0.168307C32.5396 0.0571936 32.2525 0 31.9625 0C31.6725 0 31.3853 0.0571936 31.1175 0.168307C30.8496 0.279421 30.6063 0.442272 30.4014 0.64754L20.4595 10.5895L11.8462 1.97608C10.1191 0.248978 7.30698 0.248978 5.57987 1.97608L1.37283 6.18313C-0.354278 7.91023 -0.354278 10.7223 1.37283 12.4494L9.9862 21.0628L0 31.049V40.4374H9.38836L19.3967 30.429L28.0101 39.0424C30.1136 41.1459 32.9478 40.3709 34.2764 39.0424L38.4834 34.8353C40.2105 33.1082 40.2105 30.2962 38.4834 28.5691L29.87 19.9557L39.7898 10.0359ZM4.51704 9.3052L8.70194 5.09815L11.514 7.91023L8.90123 10.5452L12.0233 13.6672L14.6582 11.0323L17.3153 13.6894L13.1083 17.8964L4.51704 9.3052ZM29.3829 25.7791L26.748 28.4141L29.87 31.5361L32.505 28.9012L35.3171 31.7133L31.11 35.9203L22.4966 27.3069L26.7037 23.0999L29.3829 25.7791ZM7.55054 36.0089H4.42847V32.8868L25.7073 11.608L28.5858 14.4865L28.8293 14.7301L7.55054 36.0089ZM28.8293 8.46379L31.9514 5.34172L35.0735 8.46379L31.9514 11.5859L28.8293 8.46379Z" stroke-width="0.1"></path>
    </symbol>
    <symbol xmlns="http://www.w3.org/2000/svg" viewBox="0 0 48 48" id="cpu">
        <path d="M39.9999 19.2C39.9999 11.2 36.7999 8 28.7999 8H19.1999C11.1999 8 7.99994 11.2 7.99994 19.2V28.8C7.99994 36.8 11.1999 40 19.1999 40" stroke-width="3" stroke-linecap="round" stroke-linejoin="round"></path>
        <path d="M32.6999 16C31.5999 14.6 29.7599 14 26.9999 14H20.9999C15.9999 14 13.9999 16 13.9999 21V27C13.9999 29.76 14.5999 31.6 15.9799 32.7" stroke-width="3" stroke-linecap="round" stroke-linejoin="round"></path>
        <path d="M16.02 8V4" stroke-width="3" stroke-linecap="round" stroke-linejoin="round"></path>
        <path d="M23.9999 8V4" stroke-width="3" stroke-linecap="round" stroke-linejoin="round"></path>
        <path d="M31.9999 8V4" stroke-width="3" stroke-linecap="round" stroke-linejoin="round"></path>
        <path d="M39.9999 16H43.9999" stroke-width="3" stroke-linecap="round" stroke-linejoin="round"></path>
        <path d="M16.02 40V44" stroke-width="3" stroke-linecap="round" stroke-linejoin="round"></path>
        <path d="M3.99994 16H7.99994" stroke-width="3" stroke-linecap="round" stroke-linejoin="round"></path>
        <path d="M3.99994 24H7.99994" stroke-width="3" stroke-linecap="round" stroke-linejoin="round"></path>
        <path d="M3.99994 32H7.99994" stroke-width="3" stroke-linecap="round" stroke-linejoin="round"></path>
        <path d="M22.82 34.9201V33.0601C22.82 31.9601 23.72 31.0601 24.82 31.0601C26.74 31.0601 27.52 29.7001 26.56 28.0401C26 27.0801 26.34 25.8401 27.3 25.3001L29.12 24.2401C29.96 23.7401 31.04 24.0401 31.54 24.8801L31.66 25.0801C32.62 26.7401 34.18 26.7401 35.14 25.0801L35.26 24.8801C35.76 24.0401 36.84 23.7601 37.68 24.2401L39.5 25.3001C40.46 25.8601 40.8 27.0801 40.24 28.0401C39.28 29.7001 40.06 31.0601 41.98 31.0601C43.08 31.0601 43.98 31.9601 43.98 33.0601V34.9201C43.98 36.0201 43.08 36.9201 41.98 36.9201C40.06 36.9201 39.28 38.2801 40.24 39.9401C40.8 40.9001 40.46 42.1401 39.5 42.6801L37.68 43.7401C36.84 44.2401 35.76 43.9401 35.26 43.1001L35.14 42.9001C34.18 41.2401 32.62 41.2401 31.66 42.9001L31.54 43.1001C31.04 43.9401 29.96 44.2201 29.12 43.7401L27.3 42.6801C26.34 42.1201 26 40.9001 26.56 39.9401C27.52 38.2801 26.74 36.9201 24.82 36.9201C23.72 36.9401 22.82 36.0401 22.82 34.9201Z" stroke-width="3" stroke-miterlimit="10" stroke-linecap="round" stroke-linejoin="round"></path>
        <path d="M33.4199 37.1801C35.1762 37.1801 36.5999 35.7563 36.5999 34.0001C36.5999 32.2438 35.1762 30.8201 33.4199 30.8201C31.6637 30.8201 30.2399 32.2438 30.2399 34.0001C30.2399 35.7563 31.6637 37.1801 33.4199 37.1801Z" stroke-width="3" stroke-miterlimit="10" stroke-linecap="round" stroke-linejoin="round"></path>
    </symbol>
</svg>